<svg width="24" height="24" viewBox="0 0 24 24" fill="none" xmlns="http://www.w3.org/2000/svg">
<path d="M3.00038 11.5C3.00038 16.1944 6.80595 20 11.5004 20C12.5772 20 13.6072 19.7998 14.5552 19.4345C14.7286 19.3678 14.8152 19.3344 14.8841 19.3185C14.9519 19.3029 15.001 19.2963 15.0705 19.2937C15.1412 19.291 15.2187 19.299 15.3738 19.315L20.4948 19.8444C20.9831 19.8948 21.2272 19.9201 21.3712 19.8322C21.4966 19.7557 21.5821 19.6279 21.6048 19.4828C21.6309 19.3161 21.5143 19.1002 21.2809 18.6684L19.6453 15.6408C19.5106 15.3915 19.4432 15.2668 19.4127 15.1469C19.3826 15.0286 19.3753 14.9432 19.3849 14.8214C19.3947 14.6981 19.4488 14.5376 19.557 14.2166C19.8445 13.3636 20.0004 12.45 20.0004 11.5C20.0004 6.80558 16.1948 3 11.5004 3C6.80595 3 3.00038 6.80558 3.00038 11.5Z" fill="#F5F5F5" stroke="#F5F5F5" stroke-linecap="round" stroke-linejoin="round"/>
<path d="M14 13.3214C14 13.3214 12.9687 14.5 11.25 14.5C9.53125 14.5 8.5 13.3214 8.5 13.3214M9.08929 9.39286H9.08143M13.4107 9.39286H13.4029M8.69643 9.39286C8.69643 9.60983 8.87232 9.78571 9.08929 9.78571C9.30625 9.78571 9.48214 9.60983 9.48214 9.39286C9.48214 9.17589 9.30625 9 9.08929 9C8.87232 9 8.69643 9.17589 8.69643 9.39286ZM13.0179 9.39286C13.0179 9.60983 13.1937 9.78571 13.4107 9.78571C13.6277 9.78571 13.8036 9.60983 13.8036 9.39286C13.8036 9.17589 13.6277 9 13.4107 9C13.1937 9 13.0179 9.17589 13.0179 9.39286Z" stroke="#AB69FF" stroke-width="1.57143" stroke-linecap="round" stroke-linejoin="round"/>
</svg>
