<svg width="27" height="27" viewBox="0 0 27 27" fill="none" xmlns="http://www.w3.org/2000/svg">
<circle cx="13.5" cy="13.5" r="13.5" fill="#4D4D4D"/>
<path d="M19.0886 11.2879C18.5885 10.1647 17.7875 9.20169 16.7743 8.50531C15.761 7.80892 14.575 7.4063 13.3472 7.34195C12.1194 7.27761 10.8977 7.55404 9.81719 8.1407C7.99887 9.12751 7.16556 11.0825 7.16557 11.2879" stroke="#BD89FF" stroke-width="1.25" stroke-linecap="round"/>
<path d="M5.692 8.59571L6.29984 11.2287C6.40337 11.6771 6.85083 11.9567 7.29927 11.8532L9.93222 11.2453" stroke="#BD89FF" stroke-width="1.25" stroke-linecap="round"/>
<path d="M6.90828 16.7099C7.40835 17.8331 8.20929 18.7961 9.22254 19.4925C10.2358 20.1889 11.4219 20.5915 12.6497 20.6558C13.8775 20.7202 15.0992 20.4438 16.1796 19.8571C18.4159 18.1647 18.7012 17.1067 19.1204 16.7098" stroke="#BD89FF" stroke-width="1.25" stroke-linecap="round"/>
<path d="M20.306 19.4023L19.6982 16.7694C19.5947 16.3209 19.1472 16.0413 18.6988 16.1449L16.0658 16.7527" stroke="#BD89FF" stroke-width="1.25" stroke-linecap="round"/>
</svg>
